<mxfile host="app.diagrams.net" modified="2024-04-26T17:08:11.624Z" agent="Mozilla/5.0 (Windows NT 10.0; Win64; x64) AppleWebKit/537.36 (KHTML, like Gecko) Chrome/123.0.0.0 Safari/537.36" etag="GO9jj9Lzhrw615KtK5mT" version="24.3.0" type="device">
  <diagram name="Page-1" id="5f0bae14-7c28-e335-631c-24af17079c00">
    <mxGraphModel dx="2011" dy="1060" grid="1" gridSize="10" guides="1" tooltips="1" connect="1" arrows="1" fold="1" page="1" pageScale="1" pageWidth="1100" pageHeight="850" background="none" math="0" shadow="0">
      <root>
        <mxCell id="0" />
        <mxCell id="1" parent="0" />
        <mxCell id="x6MESQxyELCMWQNNQ3eg-21" value="&lt;p style=&quot;margin:0px;margin-top:6px;text-align:center;&quot;&gt;&lt;b&gt;OpenAI - ChatGPT&lt;/b&gt;&lt;br&gt;&lt;/p&gt;&lt;hr size=&quot;1&quot; style=&quot;border-style:solid;&quot;&gt;&lt;p style=&quot;text-align: center; margin: 0px 0px 0px 8px;&quot;&gt;&lt;br&gt;&lt;/p&gt;&lt;p style=&quot;text-align: center; margin: 0px 0px 0px 8px;&quot;&gt;Adventurize Recipe&lt;/p&gt;" style="align=left;overflow=fill;html=1;dropTarget=0;whiteSpace=wrap;movable=1;resizable=1;rotatable=1;deletable=1;editable=1;locked=0;connectable=1;" parent="1" vertex="1">
          <mxGeometry x="1260" y="150.00000000000003" width="180" height="90" as="geometry" />
        </mxCell>
        <mxCell id="x6MESQxyELCMWQNNQ3eg-22" value="" style="shape=component;jettyWidth=8;jettyHeight=4;movable=1;resizable=1;rotatable=1;deletable=1;editable=1;locked=0;connectable=1;" parent="x6MESQxyELCMWQNNQ3eg-21" vertex="1">
          <mxGeometry x="1" width="20" height="20" relative="1" as="geometry">
            <mxPoint x="-24" y="4" as="offset" />
          </mxGeometry>
        </mxCell>
        <mxCell id="Jk6j-OTyUwP0UT-lH424-56" value="&lt;p style=&quot;margin:0px;margin-top:6px;text-align:center;&quot;&gt;&lt;b&gt;Database Management&lt;/b&gt;&lt;/p&gt;&lt;hr size=&quot;1&quot; style=&quot;border-style:solid;&quot;&gt;&lt;p style=&quot;margin:0px;margin-left:8px;&quot;&gt;&lt;br&gt;&lt;/p&gt;" style="align=left;overflow=fill;html=1;dropTarget=0;whiteSpace=wrap;movable=1;resizable=1;rotatable=1;deletable=1;editable=1;locked=0;connectable=1;" vertex="1" parent="1">
          <mxGeometry x="1260" y="283.41999999999996" width="280" height="350" as="geometry" />
        </mxCell>
        <mxCell id="Jk6j-OTyUwP0UT-lH424-57" value="" style="shape=component;jettyWidth=8;jettyHeight=4;movable=1;resizable=1;rotatable=1;deletable=1;editable=1;locked=0;connectable=1;" vertex="1" parent="Jk6j-OTyUwP0UT-lH424-56">
          <mxGeometry x="1" width="20" height="20" relative="1" as="geometry">
            <mxPoint x="-24" y="4" as="offset" />
          </mxGeometry>
        </mxCell>
        <mxCell id="x6MESQxyELCMWQNNQ3eg-3" value="&lt;p style=&quot;margin:0px;margin-top:6px;text-align:center;&quot;&gt;&lt;b&gt;Logical Layer&lt;/b&gt;&lt;/p&gt;&lt;hr size=&quot;1&quot; style=&quot;border-style:solid;&quot;&gt;&lt;p style=&quot;margin:0px;margin-left:8px;&quot;&gt;&lt;br&gt;&lt;/p&gt;" style="align=left;overflow=fill;html=1;dropTarget=0;whiteSpace=wrap;movable=1;resizable=1;rotatable=1;deletable=1;editable=1;locked=0;connectable=1;" parent="1" vertex="1">
          <mxGeometry x="810" y="153.42" width="330" height="480" as="geometry" />
        </mxCell>
        <mxCell id="x6MESQxyELCMWQNNQ3eg-4" value="" style="shape=component;jettyWidth=8;jettyHeight=4;movable=1;resizable=1;rotatable=1;deletable=1;editable=1;locked=0;connectable=1;" parent="x6MESQxyELCMWQNNQ3eg-3" vertex="1">
          <mxGeometry x="1" width="20" height="20" relative="1" as="geometry">
            <mxPoint x="-24" y="4" as="offset" />
          </mxGeometry>
        </mxCell>
        <mxCell id="x6MESQxyELCMWQNNQ3eg-13" value="&lt;p style=&quot;margin:0px;margin-top:6px;text-align:center;&quot;&gt;&lt;b&gt;Website&lt;/b&gt;&lt;/p&gt;&lt;hr size=&quot;1&quot; style=&quot;border-style:solid;&quot;&gt;&lt;p style=&quot;margin:0px;margin-left:8px;&quot;&gt;&lt;br&gt;&lt;/p&gt;" style="align=left;overflow=fill;html=1;dropTarget=0;whiteSpace=wrap;movable=1;resizable=1;rotatable=1;deletable=1;editable=1;locked=0;connectable=1;container=0;" parent="1" vertex="1">
          <mxGeometry x="281.36" y="153.42" width="330" height="480" as="geometry" />
        </mxCell>
        <mxCell id="x6MESQxyELCMWQNNQ3eg-25" value="&lt;font style=&quot;font-size: 8px;&quot;&gt;User Session&lt;/font&gt;" style="ellipse;whiteSpace=wrap;html=1;aspect=fixed;movable=1;resizable=1;rotatable=1;deletable=1;editable=1;locked=0;connectable=1;fillColor=#fff2cc;strokeColor=#d6b656;" parent="1" vertex="1">
          <mxGeometry x="205.22" y="477.7499999999999" width="43.32" height="43.32" as="geometry" />
        </mxCell>
        <mxCell id="x6MESQxyELCMWQNNQ3eg-19" value="UserManagment" style="html=1;dropTarget=0;whiteSpace=wrap;movable=1;resizable=1;rotatable=1;deletable=1;editable=1;locked=0;connectable=1;" parent="1" vertex="1">
          <mxGeometry x="388.61" y="470.41999999999996" width="135" height="60" as="geometry" />
        </mxCell>
        <mxCell id="x6MESQxyELCMWQNNQ3eg-20" value="" style="shape=module;jettyWidth=8;jettyHeight=4;movable=1;resizable=1;rotatable=1;deletable=1;editable=1;locked=0;connectable=1;" parent="x6MESQxyELCMWQNNQ3eg-19" vertex="1">
          <mxGeometry x="1" width="20" height="20" relative="1" as="geometry">
            <mxPoint x="-25" y="3" as="offset" />
          </mxGeometry>
        </mxCell>
        <mxCell id="x6MESQxyELCMWQNNQ3eg-17" value="&lt;div&gt;User Request&lt;/div&gt;&lt;div&gt;Handling&lt;/div&gt;" style="html=1;dropTarget=0;whiteSpace=wrap;movable=1;resizable=1;rotatable=1;deletable=1;editable=1;locked=0;connectable=1;" parent="1" vertex="1">
          <mxGeometry x="388.61" y="241.42" width="142.5" height="90" as="geometry" />
        </mxCell>
        <mxCell id="x6MESQxyELCMWQNNQ3eg-18" value="" style="shape=module;jettyWidth=8;jettyHeight=4;movable=1;resizable=1;rotatable=1;deletable=1;editable=1;locked=0;connectable=1;" parent="x6MESQxyELCMWQNNQ3eg-17" vertex="1">
          <mxGeometry x="1" width="20" height="20" relative="1" as="geometry">
            <mxPoint x="-27" y="7" as="offset" />
          </mxGeometry>
        </mxCell>
        <mxCell id="x6MESQxyELCMWQNNQ3eg-38" value="" style="whiteSpace=wrap;html=1;aspect=fixed;movable=1;resizable=1;rotatable=1;deletable=1;editable=1;locked=0;connectable=1;" parent="1" vertex="1">
          <mxGeometry x="383.86" y="253.29999999999998" width="10" height="10" as="geometry" />
        </mxCell>
        <mxCell id="x6MESQxyELCMWQNNQ3eg-39" style="edgeStyle=orthogonalEdgeStyle;rounded=0;orthogonalLoop=1;jettySize=auto;html=1;entryX=0;entryY=0.5;entryDx=0;entryDy=0;endArrow=none;endFill=0;movable=1;resizable=1;rotatable=1;deletable=1;editable=1;locked=0;connectable=1;" parent="1" source="x6MESQxyELCMWQNNQ3eg-40" target="x6MESQxyELCMWQNNQ3eg-38" edge="1">
          <mxGeometry relative="1" as="geometry" />
        </mxCell>
        <mxCell id="x6MESQxyELCMWQNNQ3eg-40" value="" style="ellipse;whiteSpace=wrap;html=1;aspect=fixed;movable=1;resizable=1;rotatable=1;deletable=1;editable=1;locked=0;connectable=1;" parent="1" vertex="1">
          <mxGeometry x="326.36" y="248.42" width="20" height="20" as="geometry" />
        </mxCell>
        <mxCell id="x6MESQxyELCMWQNNQ3eg-41" style="rounded=1;orthogonalLoop=1;jettySize=auto;html=1;edgeStyle=orthogonalEdgeStyle;endArrow=none;endFill=0;exitX=0;exitY=0.5;exitDx=0;exitDy=0;entryX=1;entryY=0.5;entryDx=0;entryDy=0;movable=1;resizable=1;rotatable=1;deletable=1;editable=1;locked=0;connectable=1;" parent="1" source="x6MESQxyELCMWQNNQ3eg-40" target="x6MESQxyELCMWQNNQ3eg-42" edge="1">
          <mxGeometry relative="1" as="geometry">
            <mxPoint x="241.36" y="161.29999999999998" as="sourcePoint" />
            <mxPoint x="71.36000000000001" y="81.29999999999998" as="targetPoint" />
          </mxGeometry>
        </mxCell>
        <mxCell id="x6MESQxyELCMWQNNQ3eg-42" value="" style="whiteSpace=wrap;html=1;aspect=fixed;movable=1;resizable=1;rotatable=1;deletable=1;editable=1;locked=0;connectable=1;" parent="1" vertex="1">
          <mxGeometry x="277.36" y="253.29999999999998" width="10" height="10" as="geometry" />
        </mxCell>
        <mxCell id="x6MESQxyELCMWQNNQ3eg-44" value="" style="whiteSpace=wrap;html=1;aspect=fixed;movable=1;resizable=1;rotatable=1;deletable=1;editable=1;locked=0;connectable=1;" parent="1" vertex="1">
          <mxGeometry x="383.86" y="277.41999999999996" width="10" height="10" as="geometry" />
        </mxCell>
        <mxCell id="x6MESQxyELCMWQNNQ3eg-45" style="edgeStyle=orthogonalEdgeStyle;rounded=0;orthogonalLoop=1;jettySize=auto;html=1;entryX=0;entryY=0.5;entryDx=0;entryDy=0;endArrow=none;endFill=0;movable=1;resizable=1;rotatable=1;deletable=1;editable=1;locked=0;connectable=1;" parent="1" source="x6MESQxyELCMWQNNQ3eg-46" target="x6MESQxyELCMWQNNQ3eg-44" edge="1">
          <mxGeometry relative="1" as="geometry" />
        </mxCell>
        <mxCell id="x6MESQxyELCMWQNNQ3eg-46" value="" style="ellipse;whiteSpace=wrap;html=1;aspect=fixed;movable=1;resizable=1;rotatable=1;deletable=1;editable=1;locked=0;connectable=1;" parent="1" vertex="1">
          <mxGeometry x="326.36" y="272.41999999999996" width="20" height="20" as="geometry" />
        </mxCell>
        <mxCell id="x6MESQxyELCMWQNNQ3eg-47" style="rounded=1;orthogonalLoop=1;jettySize=auto;html=1;edgeStyle=orthogonalEdgeStyle;endArrow=none;endFill=0;exitX=0;exitY=0.5;exitDx=0;exitDy=0;entryX=1;entryY=0.5;entryDx=0;entryDy=0;movable=1;resizable=1;rotatable=1;deletable=1;editable=1;locked=0;connectable=1;" parent="1" source="x6MESQxyELCMWQNNQ3eg-46" target="x6MESQxyELCMWQNNQ3eg-48" edge="1">
          <mxGeometry relative="1" as="geometry">
            <mxPoint x="241.36" y="185.04999999999998" as="sourcePoint" />
            <mxPoint x="71.36000000000001" y="105.04999999999998" as="targetPoint" />
          </mxGeometry>
        </mxCell>
        <mxCell id="x6MESQxyELCMWQNNQ3eg-48" value="" style="whiteSpace=wrap;html=1;aspect=fixed;movable=1;resizable=1;rotatable=1;deletable=1;editable=1;locked=0;connectable=1;" parent="1" vertex="1">
          <mxGeometry x="277.36" y="277.04999999999995" width="10" height="10" as="geometry" />
        </mxCell>
        <mxCell id="x6MESQxyELCMWQNNQ3eg-64" value="Search Recipe" style="ellipse;whiteSpace=wrap;html=1;aspect=fixed;fontSize=7;movable=1;resizable=1;rotatable=1;deletable=1;editable=1;locked=0;connectable=1;fillColor=#f8cecc;strokeColor=#b85450;" parent="1" vertex="1">
          <mxGeometry x="170.32999999999998" y="203.74999999999997" width="42.25" height="42.25" as="geometry" />
        </mxCell>
        <mxCell id="x6MESQxyELCMWQNNQ3eg-68" value="" style="shape=providedRequiredInterface;html=1;verticalLabelPosition=bottom;sketch=0;rotation=-90;movable=1;resizable=1;rotatable=1;deletable=1;editable=1;locked=0;connectable=1;" parent="1" vertex="1">
          <mxGeometry x="446.11" y="377.15999999999997" width="20" height="20" as="geometry" />
        </mxCell>
        <mxCell id="x6MESQxyELCMWQNNQ3eg-32" value="" style="whiteSpace=wrap;html=1;aspect=fixed;movable=1;resizable=1;rotatable=1;deletable=1;editable=1;locked=0;connectable=1;" parent="1" vertex="1">
          <mxGeometry x="383.86" y="494.41999999999996" width="10" height="10" as="geometry" />
        </mxCell>
        <mxCell id="x6MESQxyELCMWQNNQ3eg-35" style="edgeStyle=orthogonalEdgeStyle;rounded=0;orthogonalLoop=1;jettySize=auto;html=1;entryX=0;entryY=0.5;entryDx=0;entryDy=0;endArrow=none;endFill=0;movable=1;resizable=1;rotatable=1;deletable=1;editable=1;locked=0;connectable=1;" parent="1" source="x6MESQxyELCMWQNNQ3eg-34" target="x6MESQxyELCMWQNNQ3eg-32" edge="1">
          <mxGeometry relative="1" as="geometry" />
        </mxCell>
        <mxCell id="x6MESQxyELCMWQNNQ3eg-34" value="" style="ellipse;whiteSpace=wrap;html=1;aspect=fixed;movable=1;resizable=1;rotatable=1;deletable=1;editable=1;locked=0;connectable=1;" parent="1" vertex="1">
          <mxGeometry x="325.36" y="487.53999999999996" width="23.75" height="23.75" as="geometry" />
        </mxCell>
        <mxCell id="x6MESQxyELCMWQNNQ3eg-74" value="" style="whiteSpace=wrap;html=1;aspect=fixed;rotation=-180;movable=1;resizable=1;rotatable=1;deletable=1;editable=1;locked=0;connectable=1;" parent="1" vertex="1">
          <mxGeometry x="519.3599094047471" y="492.54999999999995" width="10" height="10" as="geometry" />
        </mxCell>
        <mxCell id="x6MESQxyELCMWQNNQ3eg-75" style="edgeStyle=orthogonalEdgeStyle;rounded=0;orthogonalLoop=1;jettySize=auto;html=1;entryX=0;entryY=0.5;entryDx=0;entryDy=0;endArrow=none;endFill=0;movable=1;resizable=1;rotatable=1;deletable=1;editable=1;locked=0;connectable=1;" parent="1" target="x6MESQxyELCMWQNNQ3eg-74" edge="1">
          <mxGeometry relative="1" as="geometry">
            <mxPoint x="564.3599094047366" y="496.92499999999995" as="sourcePoint" />
          </mxGeometry>
        </mxCell>
        <mxCell id="x6MESQxyELCMWQNNQ3eg-77" style="rounded=1;orthogonalLoop=1;jettySize=auto;html=1;edgeStyle=orthogonalEdgeStyle;endArrow=none;endFill=0;exitX=0;exitY=0.5;exitDx=0;exitDy=0;entryX=1;entryY=0.5;entryDx=0;entryDy=0;movable=1;resizable=1;rotatable=1;deletable=1;editable=1;locked=0;connectable=1;" parent="1" target="x6MESQxyELCMWQNNQ3eg-78" edge="1">
          <mxGeometry relative="1" as="geometry">
            <mxPoint x="583.1099094047573" y="496.92499999999995" as="sourcePoint" />
            <mxPoint x="842.3599094047471" y="674.55" as="targetPoint" />
          </mxGeometry>
        </mxCell>
        <mxCell id="x6MESQxyELCMWQNNQ3eg-78" value="" style="whiteSpace=wrap;html=1;aspect=fixed;rotation=-180;movable=1;resizable=1;rotatable=1;deletable=1;editable=1;locked=0;connectable=1;" parent="1" vertex="1">
          <mxGeometry x="607.3599094047471" y="491.54999999999995" width="10" height="10" as="geometry" />
        </mxCell>
        <mxCell id="x6MESQxyELCMWQNNQ3eg-80" value="" style="shape=requiredInterface;html=1;verticalLabelPosition=bottom;sketch=0;rotation=-180;movable=1;resizable=1;rotatable=1;deletable=1;editable=1;locked=0;connectable=1;" parent="1" vertex="1">
          <mxGeometry x="565.3599999999998" y="486.54999999999995" width="10" height="20" as="geometry" />
        </mxCell>
        <mxCell id="Jk6j-OTyUwP0UT-lH424-5" style="edgeStyle=orthogonalEdgeStyle;rounded=0;orthogonalLoop=1;jettySize=auto;html=1;entryX=0;entryY=0.5;entryDx=0;entryDy=0;endArrow=none;endFill=0;movable=1;resizable=1;rotatable=1;deletable=1;editable=1;locked=0;connectable=1;" edge="1" parent="1" source="x6MESQxyELCMWQNNQ3eg-87" target="x6MESQxyELCMWQNNQ3eg-62">
          <mxGeometry relative="1" as="geometry">
            <mxPoint x="700" y="497.41999999999996" as="sourcePoint" />
            <mxPoint x="730" y="233.42" as="targetPoint" />
          </mxGeometry>
        </mxCell>
        <mxCell id="x6MESQxyELCMWQNNQ3eg-29" value="" style="ellipse;whiteSpace=wrap;html=1;align=center;aspect=fixed;fillColor=none;strokeColor=none;resizable=1;perimeter=centerPerimeter;rotatable=1;allowArrows=0;points=[];outlineConnect=1;movable=1;deletable=1;editable=1;locked=0;connectable=1;" parent="1" vertex="1">
          <mxGeometry x="641.36" y="463.41999999999996" width="10" height="10" as="geometry" />
        </mxCell>
        <mxCell id="x6MESQxyELCMWQNNQ3eg-30" style="rounded=1;orthogonalLoop=1;jettySize=auto;html=1;edgeStyle=orthogonalEdgeStyle;endArrow=none;endFill=0;exitX=0;exitY=0.5;exitDx=0;exitDy=0;entryX=1;entryY=0.5;entryDx=0;entryDy=0;movable=1;resizable=1;rotatable=1;deletable=1;editable=1;locked=0;connectable=1;" parent="1" source="x6MESQxyELCMWQNNQ3eg-34" target="x6MESQxyELCMWQNNQ3eg-33" edge="1">
          <mxGeometry relative="1" as="geometry">
            <mxPoint x="241.36" y="403.41999999999996" as="sourcePoint" />
            <mxPoint x="71.36000000000001" y="323.41999999999996" as="targetPoint" />
          </mxGeometry>
        </mxCell>
        <mxCell id="x6MESQxyELCMWQNNQ3eg-33" value="" style="whiteSpace=wrap;html=1;aspect=fixed;movable=1;resizable=1;rotatable=1;deletable=1;editable=1;locked=0;connectable=1;" parent="1" vertex="1">
          <mxGeometry x="276.36" y="494.41999999999996" width="10" height="10" as="geometry" />
        </mxCell>
        <mxCell id="x6MESQxyELCMWQNNQ3eg-86" value="" style="endArrow=block;dashed=1;endFill=0;endSize=12;html=1;rounded=0;entryX=0;entryY=0.5;entryDx=0;entryDy=0;movable=1;resizable=1;rotatable=1;deletable=1;editable=1;locked=0;connectable=1;" parent="1" source="x6MESQxyELCMWQNNQ3eg-97" edge="1" target="x6MESQxyELCMWQNNQ3eg-87">
          <mxGeometry width="160" relative="1" as="geometry">
            <mxPoint x="544.36" y="432.41999999999996" as="sourcePoint" />
            <mxPoint x="674.36" y="497.41999999999996" as="targetPoint" />
          </mxGeometry>
        </mxCell>
        <mxCell id="x6MESQxyELCMWQNNQ3eg-97" value="" style="shape=requiredInterface;html=1;verticalLabelPosition=bottom;sketch=0;rotation=-180;movable=1;resizable=1;rotatable=1;deletable=1;editable=1;locked=0;connectable=1;" parent="1" vertex="1">
          <mxGeometry x="633" y="486.54999999999995" width="10" height="20" as="geometry" />
        </mxCell>
        <mxCell id="Jk6j-OTyUwP0UT-lH424-3" style="edgeStyle=orthogonalEdgeStyle;rounded=0;orthogonalLoop=1;jettySize=auto;html=1;entryX=0;entryY=0.5;entryDx=0;entryDy=0;entryPerimeter=0;exitX=0.5;exitY=0;exitDx=0;exitDy=0;endArrow=none;endFill=0;movable=1;resizable=1;rotatable=1;deletable=1;editable=1;locked=0;connectable=1;" edge="1" parent="1" source="x6MESQxyELCMWQNNQ3eg-19" target="x6MESQxyELCMWQNNQ3eg-68">
          <mxGeometry relative="1" as="geometry">
            <mxPoint x="450" y="433.41999999999996" as="sourcePoint" />
          </mxGeometry>
        </mxCell>
        <mxCell id="Jk6j-OTyUwP0UT-lH424-11" style="edgeStyle=orthogonalEdgeStyle;rounded=0;orthogonalLoop=1;jettySize=auto;html=1;entryX=0;entryY=0.5;entryDx=0;entryDy=0;endArrow=none;endFill=0;movable=1;resizable=1;rotatable=1;deletable=1;editable=1;locked=0;connectable=1;exitX=1;exitY=0.5;exitDx=0;exitDy=0;" edge="1" parent="1" source="x6MESQxyELCMWQNNQ3eg-66" target="x6MESQxyELCMWQNNQ3eg-48">
          <mxGeometry relative="1" as="geometry">
            <mxPoint x="229.99991721725542" y="282.3793103448277" as="sourcePoint" />
          </mxGeometry>
        </mxCell>
        <mxCell id="x6MESQxyELCMWQNNQ3eg-66" value="Create&lt;div&gt;Recipe&lt;/div&gt;" style="ellipse;whiteSpace=wrap;html=1;aspect=fixed;fontSize=7;movable=1;resizable=1;rotatable=1;deletable=1;editable=1;locked=0;connectable=1;fillColor=#d5e8d4;strokeColor=#82b366;" parent="1" vertex="1">
          <mxGeometry x="170" y="261.55" width="41.45" height="41.45" as="geometry" />
        </mxCell>
        <mxCell id="x6MESQxyELCMWQNNQ3eg-72" value="" style="ellipse;whiteSpace=wrap;html=1;align=center;aspect=fixed;fillColor=none;strokeColor=none;resizable=1;perimeter=centerPerimeter;rotatable=1;allowArrows=0;points=[];outlineConnect=1;movable=1;deletable=1;editable=1;locked=0;connectable=1;" parent="1" vertex="1">
          <mxGeometry x="601.36" y="357.41999999999996" width="10" height="10" as="geometry" />
        </mxCell>
        <mxCell id="x6MESQxyELCMWQNNQ3eg-14" value="" style="shape=component;jettyWidth=8;jettyHeight=4;movable=1;resizable=1;rotatable=1;deletable=1;editable=1;locked=0;connectable=1;" parent="1" vertex="1">
          <mxGeometry x="588.36" y="156.42000000000004" width="20" height="20" as="geometry">
            <mxPoint x="-24" y="4" as="offset" />
          </mxGeometry>
        </mxCell>
        <mxCell id="x6MESQxyELCMWQNNQ3eg-6" value="API&lt;div&gt;Endpoint&lt;/div&gt;" style="html=1;dropTarget=0;whiteSpace=wrap;movable=1;resizable=1;rotatable=1;deletable=1;editable=1;locked=0;connectable=1;" parent="1" vertex="1">
          <mxGeometry x="913.5" y="268.41999999999996" width="136.5" height="55" as="geometry" />
        </mxCell>
        <mxCell id="x6MESQxyELCMWQNNQ3eg-7" value="" style="shape=module;jettyWidth=8;jettyHeight=4;movable=1;resizable=1;rotatable=1;deletable=1;editable=1;locked=0;connectable=1;" parent="x6MESQxyELCMWQNNQ3eg-6" vertex="1">
          <mxGeometry x="1" width="20" height="20" relative="1" as="geometry">
            <mxPoint x="-27" y="7" as="offset" />
          </mxGeometry>
        </mxCell>
        <mxCell id="x6MESQxyELCMWQNNQ3eg-8" value="Adventurize&lt;br&gt;Function" style="html=1;dropTarget=0;whiteSpace=wrap;movable=1;resizable=1;rotatable=1;deletable=1;editable=1;locked=0;connectable=1;" parent="1" vertex="1">
          <mxGeometry x="913.5" y="397.15999999999997" width="136.5" height="56" as="geometry" />
        </mxCell>
        <mxCell id="x6MESQxyELCMWQNNQ3eg-9" value="" style="shape=module;jettyWidth=8;jettyHeight=4;movable=1;resizable=1;rotatable=1;deletable=1;editable=1;locked=0;connectable=1;" parent="x6MESQxyELCMWQNNQ3eg-8" vertex="1">
          <mxGeometry x="1" width="19" height="20" relative="1" as="geometry">
            <mxPoint x="-27" y="7" as="offset" />
          </mxGeometry>
        </mxCell>
        <mxCell id="x6MESQxyELCMWQNNQ3eg-10" value="Data Access Layer" style="html=1;dropTarget=0;whiteSpace=wrap;movable=1;resizable=1;rotatable=1;deletable=1;editable=1;locked=0;connectable=1;" parent="1" vertex="1">
          <mxGeometry x="1334.25" y="532.0099999999999" width="136.5" height="60.92" as="geometry" />
        </mxCell>
        <mxCell id="x6MESQxyELCMWQNNQ3eg-11" value="" style="shape=module;jettyWidth=8;jettyHeight=4;movable=1;resizable=1;rotatable=1;deletable=1;editable=1;locked=0;connectable=1;" parent="x6MESQxyELCMWQNNQ3eg-10" vertex="1">
          <mxGeometry x="1" width="21" height="20" relative="1" as="geometry">
            <mxPoint x="-23" y="2" as="offset" />
          </mxGeometry>
        </mxCell>
        <mxCell id="x6MESQxyELCMWQNNQ3eg-62" value="" style="whiteSpace=wrap;html=1;aspect=fixed;movable=1;resizable=1;rotatable=1;deletable=1;editable=1;locked=0;connectable=1;" parent="1" vertex="1">
          <mxGeometry x="805" y="305.75" width="10" height="10" as="geometry" />
        </mxCell>
        <mxCell id="x6MESQxyELCMWQNNQ3eg-61" style="rounded=1;orthogonalLoop=1;jettySize=auto;html=1;edgeStyle=orthogonalEdgeStyle;endArrow=none;endFill=0;exitX=0;exitY=0.5;exitDx=0;exitDy=0;entryX=1;entryY=0.5;entryDx=0;entryDy=0;movable=1;resizable=1;rotatable=1;deletable=1;editable=1;locked=0;connectable=1;" parent="1" target="x6MESQxyELCMWQNNQ3eg-62" edge="1">
          <mxGeometry relative="1" as="geometry">
            <mxPoint x="849.9999999999563" y="310.745" as="sourcePoint" />
            <mxPoint x="520.5" y="-116.82999999999998" as="targetPoint" />
          </mxGeometry>
        </mxCell>
        <mxCell id="x6MESQxyELCMWQNNQ3eg-50" value="" style="whiteSpace=wrap;html=1;aspect=fixed;movable=1;resizable=1;rotatable=1;deletable=1;editable=1;locked=0;connectable=1;" parent="1" vertex="1">
          <mxGeometry x="383.86" y="300.79999999999995" width="10" height="10" as="geometry" />
        </mxCell>
        <mxCell id="x6MESQxyELCMWQNNQ3eg-51" style="edgeStyle=orthogonalEdgeStyle;rounded=0;orthogonalLoop=1;jettySize=auto;html=1;entryX=0;entryY=0.5;entryDx=0;entryDy=0;endArrow=none;endFill=0;movable=1;resizable=1;rotatable=1;deletable=1;editable=1;locked=0;connectable=1;" parent="1" target="x6MESQxyELCMWQNNQ3eg-50" edge="1">
          <mxGeometry relative="1" as="geometry">
            <mxPoint x="345.9998523058921" y="305.83379310344833" as="sourcePoint" />
          </mxGeometry>
        </mxCell>
        <mxCell id="x6MESQxyELCMWQNNQ3eg-52" value="" style="ellipse;whiteSpace=wrap;html=1;aspect=fixed;movable=1;resizable=1;rotatable=1;deletable=1;editable=1;locked=0;connectable=1;" parent="1" vertex="1">
          <mxGeometry x="326.9999094047471" y="295.79999999999995" width="20" height="20" as="geometry" />
        </mxCell>
        <mxCell id="x6MESQxyELCMWQNNQ3eg-53" style="rounded=1;orthogonalLoop=1;jettySize=auto;html=1;edgeStyle=orthogonalEdgeStyle;endArrow=none;endFill=0;exitX=0;exitY=0.5;exitDx=0;exitDy=0;entryX=1;entryY=0.5;entryDx=0;entryDy=0;movable=1;resizable=1;rotatable=1;deletable=1;editable=1;locked=0;connectable=1;" parent="1" target="x6MESQxyELCMWQNNQ3eg-54" edge="1">
          <mxGeometry relative="1" as="geometry">
            <mxPoint x="325.9999094047471" y="305.80000000000007" as="sourcePoint" />
            <mxPoint x="72.36000000000001" y="128.79999999999998" as="targetPoint" />
          </mxGeometry>
        </mxCell>
        <mxCell id="Jk6j-OTyUwP0UT-lH424-126" style="edgeStyle=orthogonalEdgeStyle;rounded=0;orthogonalLoop=1;jettySize=auto;html=1;entryX=1;entryY=0.5;entryDx=0;entryDy=0;endArrow=none;endFill=0;" edge="1" parent="1" source="x6MESQxyELCMWQNNQ3eg-54" target="Jk6j-OTyUwP0UT-lH424-9">
          <mxGeometry relative="1" as="geometry" />
        </mxCell>
        <mxCell id="x6MESQxyELCMWQNNQ3eg-54" value="" style="whiteSpace=wrap;html=1;aspect=fixed;movable=1;resizable=1;rotatable=1;deletable=1;editable=1;locked=0;connectable=1;" parent="1" vertex="1">
          <mxGeometry x="277.36" y="299.79999999999995" width="10" height="10" as="geometry" />
        </mxCell>
        <mxCell id="Jk6j-OTyUwP0UT-lH424-9" value="Adventurize&lt;div&gt;Recipe&lt;/div&gt;" style="ellipse;whiteSpace=wrap;html=1;aspect=fixed;fontSize=7;movable=1;resizable=1;rotatable=1;deletable=1;editable=1;locked=0;connectable=1;fillColor=#dae8fc;strokeColor=#6c8ebf;" vertex="1" parent="1">
          <mxGeometry x="169" y="316.42" width="43.58" height="43.58" as="geometry" />
        </mxCell>
        <mxCell id="Jk6j-OTyUwP0UT-lH424-13" value="" style="edgeStyle=orthogonalEdgeStyle;rounded=0;orthogonalLoop=1;jettySize=auto;html=1;endArrow=none;endFill=0;movable=1;resizable=1;rotatable=1;deletable=1;editable=1;locked=0;connectable=1;" edge="1" parent="1" source="x6MESQxyELCMWQNNQ3eg-33">
          <mxGeometry relative="1" as="geometry">
            <mxPoint x="276" y="499.41999999999996" as="sourcePoint" />
            <mxPoint x="250" y="499.41999999999996" as="targetPoint" />
          </mxGeometry>
        </mxCell>
        <mxCell id="Jk6j-OTyUwP0UT-lH424-16" style="edgeStyle=orthogonalEdgeStyle;rounded=0;orthogonalLoop=1;jettySize=auto;html=1;exitX=0;exitY=0.5;exitDx=0;exitDy=0;entryX=1;entryY=0.5;entryDx=0;entryDy=0;entryPerimeter=0;endArrow=none;endFill=0;movable=1;resizable=1;rotatable=1;deletable=1;editable=1;locked=0;connectable=1;" edge="1" parent="1" source="x6MESQxyELCMWQNNQ3eg-78" target="x6MESQxyELCMWQNNQ3eg-97">
          <mxGeometry relative="1" as="geometry" />
        </mxCell>
        <mxCell id="Jk6j-OTyUwP0UT-lH424-17" value="" style="edgeStyle=orthogonalEdgeStyle;rounded=0;orthogonalLoop=1;jettySize=auto;html=1;entryX=0;entryY=0.5;entryDx=0;entryDy=0;endArrow=none;endFill=0;movable=1;resizable=1;rotatable=1;deletable=1;editable=1;locked=0;connectable=1;" edge="1" parent="1" target="x6MESQxyELCMWQNNQ3eg-87">
          <mxGeometry relative="1" as="geometry">
            <mxPoint x="700" y="494.41999999999996" as="sourcePoint" />
            <mxPoint x="805" y="242.42" as="targetPoint" />
          </mxGeometry>
        </mxCell>
        <mxCell id="x6MESQxyELCMWQNNQ3eg-87" value="" style="ellipse;whiteSpace=wrap;html=1;aspect=fixed;movable=1;resizable=1;rotatable=1;deletable=1;editable=1;locked=0;connectable=1;" parent="1" vertex="1">
          <mxGeometry x="690" y="486.26" width="20.31" height="20.31" as="geometry" />
        </mxCell>
        <mxCell id="Jk6j-OTyUwP0UT-lH424-18" value="" style="whiteSpace=wrap;html=1;aspect=fixed;movable=1;resizable=1;rotatable=1;deletable=1;editable=1;locked=0;connectable=1;" vertex="1" parent="1">
          <mxGeometry x="451.11" y="464.41999999999996" width="10" height="10" as="geometry" />
        </mxCell>
        <mxCell id="Jk6j-OTyUwP0UT-lH424-19" value="" style="whiteSpace=wrap;html=1;aspect=fixed;movable=1;resizable=1;rotatable=1;deletable=1;editable=1;locked=0;connectable=1;" vertex="1" parent="1">
          <mxGeometry x="451.11" y="331.41999999999996" width="10" height="10" as="geometry" />
        </mxCell>
        <mxCell id="Jk6j-OTyUwP0UT-lH424-20" style="edgeStyle=orthogonalEdgeStyle;rounded=0;orthogonalLoop=1;jettySize=auto;html=1;exitX=0.5;exitY=1;exitDx=0;exitDy=0;entryX=1;entryY=0.5;entryDx=0;entryDy=0;entryPerimeter=0;endArrow=none;endFill=0;movable=1;resizable=1;rotatable=1;deletable=1;editable=1;locked=0;connectable=1;" edge="1" parent="1" source="Jk6j-OTyUwP0UT-lH424-19" target="x6MESQxyELCMWQNNQ3eg-68">
          <mxGeometry relative="1" as="geometry" />
        </mxCell>
        <mxCell id="Jk6j-OTyUwP0UT-lH424-21" value="&lt;font style=&quot;font-size: 10px;&quot;&gt;Manage&lt;/font&gt;&lt;div style=&quot;font-size: 10px;&quot;&gt;&lt;font style=&quot;font-size: 10px;&quot;&gt;Users&lt;/font&gt;&lt;/div&gt;" style="text;strokeColor=none;fillColor=none;html=1;fontSize=24;fontStyle=1;verticalAlign=middle;align=center;movable=1;resizable=1;rotatable=1;deletable=1;editable=1;locked=0;connectable=1;" vertex="1" parent="1">
          <mxGeometry x="650" y="444.91999999999996" width="100" height="40" as="geometry" />
        </mxCell>
        <mxCell id="Jk6j-OTyUwP0UT-lH424-23" value="&lt;font style=&quot;font-size: 11px;&quot;&gt;Internal Structure&lt;/font&gt;" style="text;strokeColor=none;fillColor=none;html=1;fontSize=24;fontStyle=1;verticalAlign=middle;align=center;movable=1;resizable=1;rotatable=1;deletable=1;editable=1;locked=0;connectable=1;" vertex="1" parent="1">
          <mxGeometry x="409.86" y="192.42" width="100" height="40" as="geometry" />
        </mxCell>
        <mxCell id="Jk6j-OTyUwP0UT-lH424-26" value="" style="edgeStyle=orthogonalEdgeStyle;rounded=0;orthogonalLoop=1;jettySize=auto;html=1;entryX=1;entryY=0.5;entryDx=0;entryDy=0;entryPerimeter=0;endArrow=none;endFill=0;movable=1;resizable=1;rotatable=1;deletable=1;editable=1;locked=0;connectable=1;" edge="1" parent="1" source="x6MESQxyELCMWQNNQ3eg-17" target="Jk6j-OTyUwP0UT-lH424-30">
          <mxGeometry relative="1" as="geometry">
            <mxPoint x="899.9999999999998" y="273.41999999999996" as="targetPoint" />
            <mxPoint x="531" y="291.41999999999996" as="sourcePoint" />
          </mxGeometry>
        </mxCell>
        <mxCell id="Jk6j-OTyUwP0UT-lH424-31" style="edgeStyle=orthogonalEdgeStyle;rounded=0;orthogonalLoop=1;jettySize=auto;html=1;endArrow=none;endFill=0;movable=1;resizable=1;rotatable=1;deletable=1;editable=1;locked=0;connectable=1;" edge="1" parent="1" source="Jk6j-OTyUwP0UT-lH424-25">
          <mxGeometry relative="1" as="geometry">
            <mxPoint x="589.9999999999998" y="287.41999999999996" as="targetPoint" />
          </mxGeometry>
        </mxCell>
        <mxCell id="Jk6j-OTyUwP0UT-lH424-25" value="" style="whiteSpace=wrap;html=1;aspect=fixed;movable=1;resizable=1;rotatable=1;deletable=1;editable=1;locked=0;connectable=1;" vertex="1" parent="1">
          <mxGeometry x="607.36" y="282.4200000000001" width="10" height="10" as="geometry" />
        </mxCell>
        <mxCell id="Jk6j-OTyUwP0UT-lH424-28" value="" style="edgeStyle=orthogonalEdgeStyle;rounded=0;orthogonalLoop=1;jettySize=auto;html=1;endArrow=none;endFill=0;exitX=1;exitY=0.5;exitDx=0;exitDy=0;movable=1;resizable=1;rotatable=1;deletable=1;editable=1;locked=0;connectable=1;" edge="1" parent="1" source="Jk6j-OTyUwP0UT-lH424-44" target="Jk6j-OTyUwP0UT-lH424-27">
          <mxGeometry relative="1" as="geometry">
            <mxPoint x="899.9999999999998" y="273.41999999999996" as="targetPoint" />
            <mxPoint x="760" y="283.41999999999996" as="sourcePoint" />
          </mxGeometry>
        </mxCell>
        <mxCell id="Jk6j-OTyUwP0UT-lH424-35" style="edgeStyle=orthogonalEdgeStyle;rounded=0;orthogonalLoop=1;jettySize=auto;html=1;entryX=0;entryY=0.5;entryDx=0;entryDy=0;endArrow=none;endFill=0;movable=1;resizable=1;rotatable=1;deletable=1;editable=1;locked=0;connectable=1;" edge="1" parent="1" source="Jk6j-OTyUwP0UT-lH424-46" target="Jk6j-OTyUwP0UT-lH424-34">
          <mxGeometry relative="1" as="geometry" />
        </mxCell>
        <mxCell id="Jk6j-OTyUwP0UT-lH424-27" value="" style="whiteSpace=wrap;html=1;aspect=fixed;movable=1;resizable=1;rotatable=1;deletable=1;editable=1;locked=0;connectable=1;" vertex="1" parent="1">
          <mxGeometry x="805" y="282.4200000000001" width="10" height="10" as="geometry" />
        </mxCell>
        <mxCell id="Jk6j-OTyUwP0UT-lH424-30" value="" style="shape=requiredInterface;html=1;verticalLabelPosition=bottom;sketch=0;rotation=-180;movable=1;resizable=1;rotatable=1;deletable=1;editable=1;locked=0;connectable=1;" vertex="1" parent="1">
          <mxGeometry x="575.3599999999998" y="276.79999999999995" width="10" height="20" as="geometry" />
        </mxCell>
        <mxCell id="Jk6j-OTyUwP0UT-lH424-34" value="" style="whiteSpace=wrap;html=1;aspect=fixed;movable=1;resizable=1;rotatable=1;deletable=1;editable=1;locked=0;connectable=1;" vertex="1" parent="1">
          <mxGeometry x="908.5" y="281.4200000000001" width="10" height="10" as="geometry" />
        </mxCell>
        <mxCell id="Jk6j-OTyUwP0UT-lH424-36" value="" style="shape=requiredInterface;html=1;verticalLabelPosition=bottom;sketch=0;rotation=-180;movable=1;resizable=1;rotatable=1;deletable=1;editable=1;locked=0;connectable=1;" vertex="1" parent="1">
          <mxGeometry x="639.9999999999998" y="277.41999999999996" width="10" height="20" as="geometry" />
        </mxCell>
        <mxCell id="Jk6j-OTyUwP0UT-lH424-37" style="edgeStyle=orthogonalEdgeStyle;rounded=0;orthogonalLoop=1;jettySize=auto;html=1;entryX=1;entryY=0.5;entryDx=0;entryDy=0;entryPerimeter=0;endArrow=none;endFill=0;movable=1;resizable=1;rotatable=1;deletable=1;editable=1;locked=0;connectable=1;" edge="1" parent="1" source="Jk6j-OTyUwP0UT-lH424-25" target="Jk6j-OTyUwP0UT-lH424-36">
          <mxGeometry relative="1" as="geometry" />
        </mxCell>
        <mxCell id="Jk6j-OTyUwP0UT-lH424-39" value="Data&lt;br&gt;Transformator" style="html=1;dropTarget=0;whiteSpace=wrap;movable=1;resizable=1;rotatable=1;deletable=1;editable=1;locked=0;connectable=1;" vertex="1" parent="1">
          <mxGeometry x="913.5" y="530.42" width="136.5" height="50" as="geometry" />
        </mxCell>
        <mxCell id="Jk6j-OTyUwP0UT-lH424-40" value="" style="shape=module;jettyWidth=8;jettyHeight=4;movable=1;resizable=1;rotatable=1;deletable=1;editable=1;locked=0;connectable=1;" vertex="1" parent="Jk6j-OTyUwP0UT-lH424-39">
          <mxGeometry x="1" width="21" height="20" relative="1" as="geometry">
            <mxPoint x="-24" y="3" as="offset" />
          </mxGeometry>
        </mxCell>
        <mxCell id="Jk6j-OTyUwP0UT-lH424-42" value="" style="endArrow=block;dashed=1;endFill=0;endSize=12;html=1;rounded=0;entryX=0;entryY=0.5;entryDx=0;entryDy=0;movable=1;resizable=1;rotatable=1;deletable=1;editable=1;locked=0;connectable=1;" edge="1" parent="1" target="Jk6j-OTyUwP0UT-lH424-44">
          <mxGeometry width="160" relative="1" as="geometry">
            <mxPoint x="650" y="287.2099999999999" as="sourcePoint" />
            <mxPoint x="681.36" y="288.2099999999999" as="targetPoint" />
          </mxGeometry>
        </mxCell>
        <mxCell id="Jk6j-OTyUwP0UT-lH424-44" value="" style="ellipse;whiteSpace=wrap;html=1;aspect=fixed;movable=1;resizable=1;rotatable=1;deletable=1;editable=1;locked=0;connectable=1;" vertex="1" parent="1">
          <mxGeometry x="697" y="277.04999999999995" width="20.31" height="20.31" as="geometry" />
        </mxCell>
        <mxCell id="Jk6j-OTyUwP0UT-lH424-45" value="&lt;font style=&quot;font-size: 10px;&quot;&gt;Manage&lt;/font&gt;&lt;div style=&quot;font-size: 10px;&quot;&gt;Request&lt;/div&gt;" style="text;strokeColor=none;fillColor=none;html=1;fontSize=24;fontStyle=1;verticalAlign=middle;align=center;movable=1;resizable=1;rotatable=1;deletable=1;editable=1;locked=0;connectable=1;" vertex="1" parent="1">
          <mxGeometry x="657.15" y="232.42" width="100" height="40" as="geometry" />
        </mxCell>
        <mxCell id="Jk6j-OTyUwP0UT-lH424-47" value="" style="edgeStyle=orthogonalEdgeStyle;rounded=0;orthogonalLoop=1;jettySize=auto;html=1;entryX=0;entryY=0.5;entryDx=0;entryDy=0;endArrow=none;endFill=0;movable=1;resizable=1;rotatable=1;deletable=1;editable=1;locked=0;connectable=1;" edge="1" parent="1" source="Jk6j-OTyUwP0UT-lH424-27" target="Jk6j-OTyUwP0UT-lH424-46">
          <mxGeometry relative="1" as="geometry">
            <mxPoint x="815" y="287.41999999999996" as="sourcePoint" />
            <mxPoint x="909" y="287.41999999999996" as="targetPoint" />
          </mxGeometry>
        </mxCell>
        <mxCell id="Jk6j-OTyUwP0UT-lH424-46" value="" style="ellipse;whiteSpace=wrap;html=1;aspect=fixed;movable=1;resizable=1;rotatable=1;deletable=1;editable=1;locked=0;connectable=1;" vertex="1" parent="1">
          <mxGeometry x="850" y="275.05000000000007" width="23.75" height="23.75" as="geometry" />
        </mxCell>
        <mxCell id="Jk6j-OTyUwP0UT-lH424-50" value="" style="edgeStyle=orthogonalEdgeStyle;rounded=0;orthogonalLoop=1;jettySize=auto;html=1;entryX=1;entryY=0.5;entryDx=0;entryDy=0;endArrow=none;endFill=0;movable=1;resizable=1;rotatable=1;deletable=1;editable=1;locked=0;connectable=1;" edge="1" parent="1" source="x6MESQxyELCMWQNNQ3eg-42" target="x6MESQxyELCMWQNNQ3eg-64">
          <mxGeometry relative="1" as="geometry">
            <mxPoint x="277" y="258.41999999999996" as="sourcePoint" />
            <mxPoint x="230.00000000001637" y="230.0000000000001" as="targetPoint" />
          </mxGeometry>
        </mxCell>
        <mxCell id="Jk6j-OTyUwP0UT-lH424-66" style="edgeStyle=orthogonalEdgeStyle;rounded=0;orthogonalLoop=1;jettySize=auto;html=1;endArrow=none;endFill=0;movable=1;resizable=1;rotatable=1;deletable=1;editable=1;locked=0;connectable=1;" edge="1" parent="1" source="Jk6j-OTyUwP0UT-lH424-59">
          <mxGeometry relative="1" as="geometry">
            <mxPoint x="981.75" y="393.41999999999996" as="targetPoint" />
          </mxGeometry>
        </mxCell>
        <mxCell id="Jk6j-OTyUwP0UT-lH424-67" style="edgeStyle=orthogonalEdgeStyle;rounded=0;orthogonalLoop=1;jettySize=auto;html=1;entryX=0.5;entryY=1;entryDx=0;entryDy=0;endArrow=none;endFill=0;movable=1;resizable=1;rotatable=1;deletable=1;editable=1;locked=0;connectable=1;" edge="1" parent="1" source="Jk6j-OTyUwP0UT-lH424-59" target="Jk6j-OTyUwP0UT-lH424-62">
          <mxGeometry relative="1" as="geometry" />
        </mxCell>
        <mxCell id="Jk6j-OTyUwP0UT-lH424-59" value="" style="shape=providedRequiredInterface;html=1;verticalLabelPosition=bottom;sketch=0;rotation=-90;movable=1;resizable=1;rotatable=1;deletable=1;editable=1;locked=0;connectable=1;" vertex="1" parent="1">
          <mxGeometry x="971.75" y="346.41999999999996" width="20" height="20" as="geometry" />
        </mxCell>
        <mxCell id="Jk6j-OTyUwP0UT-lH424-61" value="" style="whiteSpace=wrap;html=1;aspect=fixed;movable=1;resizable=1;rotatable=1;deletable=1;editable=1;locked=0;connectable=1;" vertex="1" parent="1">
          <mxGeometry x="976.75" y="391.41999999999996" width="10" height="10" as="geometry" />
        </mxCell>
        <mxCell id="Jk6j-OTyUwP0UT-lH424-62" value="" style="whiteSpace=wrap;html=1;aspect=fixed;movable=1;resizable=1;rotatable=1;deletable=1;editable=1;locked=0;connectable=1;" vertex="1" parent="1">
          <mxGeometry x="976.75" y="316.41999999999996" width="10" height="10" as="geometry" />
        </mxCell>
        <mxCell id="Jk6j-OTyUwP0UT-lH424-69" style="edgeStyle=orthogonalEdgeStyle;rounded=0;orthogonalLoop=1;jettySize=auto;html=1;endArrow=none;endFill=0;entryX=0;entryY=0.5;entryDx=0;entryDy=0;exitX=0;exitY=0.5;exitDx=0;exitDy=0;exitPerimeter=0;movable=1;resizable=1;rotatable=1;deletable=1;editable=1;locked=0;connectable=1;" edge="1" parent="1" source="Jk6j-OTyUwP0UT-lH424-71" target="Jk6j-OTyUwP0UT-lH424-72">
          <mxGeometry relative="1" as="geometry">
            <mxPoint x="981.75" y="525.42" as="targetPoint" />
            <mxPoint x="981.75" y="498.67999999999995" as="sourcePoint" />
          </mxGeometry>
        </mxCell>
        <mxCell id="Jk6j-OTyUwP0UT-lH424-71" value="" style="shape=providedRequiredInterface;html=1;verticalLabelPosition=bottom;sketch=0;rotation=-90;movable=1;resizable=1;rotatable=1;deletable=1;editable=1;locked=0;connectable=1;" vertex="1" parent="1">
          <mxGeometry x="840" y="435.0799999999999" width="20" height="20" as="geometry" />
        </mxCell>
        <mxCell id="Jk6j-OTyUwP0UT-lH424-72" value="" style="whiteSpace=wrap;html=1;aspect=fixed;movable=1;resizable=1;rotatable=1;deletable=1;editable=1;locked=0;connectable=1;" vertex="1" parent="1">
          <mxGeometry x="908.5" y="556.42" width="10" height="10" as="geometry" />
        </mxCell>
        <mxCell id="Jk6j-OTyUwP0UT-lH424-74" value="" style="whiteSpace=wrap;html=1;aspect=fixed;movable=1;resizable=1;rotatable=1;deletable=1;editable=1;locked=0;connectable=1;" vertex="1" parent="1">
          <mxGeometry x="1046" y="420.15999999999997" width="10" height="10" as="geometry" />
        </mxCell>
        <mxCell id="Jk6j-OTyUwP0UT-lH424-75" value="" style="whiteSpace=wrap;html=1;aspect=fixed;movable=1;resizable=1;rotatable=1;deletable=1;editable=1;locked=0;connectable=1;" vertex="1" parent="1">
          <mxGeometry x="1329.25" y="557.4699999999999" width="10" height="10" as="geometry" />
        </mxCell>
        <mxCell id="Jk6j-OTyUwP0UT-lH424-76" value="" style="whiteSpace=wrap;html=1;aspect=fixed;movable=1;resizable=1;rotatable=1;deletable=1;editable=1;locked=0;connectable=1;" vertex="1" parent="1">
          <mxGeometry x="1046" y="557.42" width="10" height="10" as="geometry" />
        </mxCell>
        <mxCell id="Jk6j-OTyUwP0UT-lH424-80" style="rounded=1;orthogonalLoop=1;jettySize=auto;html=1;edgeStyle=orthogonalEdgeStyle;endArrow=none;endFill=0;exitX=0;exitY=0.5;exitDx=0;exitDy=0;entryX=1;entryY=0.5;entryDx=0;entryDy=0;movable=1;resizable=1;rotatable=1;deletable=1;editable=1;locked=0;connectable=1;exitPerimeter=0;" edge="1" parent="1" target="Jk6j-OTyUwP0UT-lH424-81" source="Jk6j-OTyUwP0UT-lH424-82">
          <mxGeometry relative="1" as="geometry">
            <mxPoint x="1111.7499094047573" y="562.925" as="sourcePoint" />
            <mxPoint x="1370.999909404747" y="740.55" as="targetPoint" />
          </mxGeometry>
        </mxCell>
        <mxCell id="Jk6j-OTyUwP0UT-lH424-81" value="" style="whiteSpace=wrap;html=1;aspect=fixed;rotation=-180;movable=1;resizable=1;rotatable=1;deletable=1;editable=1;locked=0;connectable=1;" vertex="1" parent="1">
          <mxGeometry x="1135.999909404747" y="557.55" width="10" height="10" as="geometry" />
        </mxCell>
        <mxCell id="Jk6j-OTyUwP0UT-lH424-90" style="edgeStyle=orthogonalEdgeStyle;rounded=0;orthogonalLoop=1;jettySize=auto;html=1;entryX=1;entryY=0.5;entryDx=0;entryDy=0;endArrow=none;endFill=0;movable=1;resizable=1;rotatable=1;deletable=1;editable=1;locked=0;connectable=1;" edge="1" parent="1" source="Jk6j-OTyUwP0UT-lH424-82" target="Jk6j-OTyUwP0UT-lH424-76">
          <mxGeometry relative="1" as="geometry" />
        </mxCell>
        <mxCell id="Jk6j-OTyUwP0UT-lH424-82" value="" style="shape=requiredInterface;html=1;verticalLabelPosition=bottom;sketch=0;rotation=-180;movable=1;resizable=1;rotatable=1;deletable=1;editable=1;locked=0;connectable=1;" vertex="1" parent="1">
          <mxGeometry x="1093.9999999999998" y="552.55" width="10" height="20" as="geometry" />
        </mxCell>
        <mxCell id="Jk6j-OTyUwP0UT-lH424-83" value="" style="endArrow=block;dashed=1;endFill=0;endSize=12;html=1;rounded=0;entryX=0;entryY=0.5;entryDx=0;entryDy=0;movable=1;resizable=1;rotatable=1;deletable=1;editable=1;locked=0;connectable=1;" edge="1" parent="1" source="Jk6j-OTyUwP0UT-lH424-84" target="Jk6j-OTyUwP0UT-lH424-87">
          <mxGeometry width="160" relative="1" as="geometry">
            <mxPoint x="1073" y="498.41999999999996" as="sourcePoint" />
            <mxPoint x="1203" y="563.42" as="targetPoint" />
          </mxGeometry>
        </mxCell>
        <mxCell id="Jk6j-OTyUwP0UT-lH424-84" value="" style="shape=requiredInterface;html=1;verticalLabelPosition=bottom;sketch=0;rotation=-180;movable=1;resizable=1;rotatable=1;deletable=1;editable=1;locked=0;connectable=1;" vertex="1" parent="1">
          <mxGeometry x="1161.6399999999999" y="552.55" width="10" height="20" as="geometry" />
        </mxCell>
        <mxCell id="Jk6j-OTyUwP0UT-lH424-85" style="edgeStyle=orthogonalEdgeStyle;rounded=0;orthogonalLoop=1;jettySize=auto;html=1;exitX=0;exitY=0.5;exitDx=0;exitDy=0;entryX=1;entryY=0.5;entryDx=0;entryDy=0;entryPerimeter=0;endArrow=none;endFill=0;movable=1;resizable=1;rotatable=1;deletable=1;editable=1;locked=0;connectable=1;" edge="1" parent="1" source="Jk6j-OTyUwP0UT-lH424-81" target="Jk6j-OTyUwP0UT-lH424-84">
          <mxGeometry relative="1" as="geometry" />
        </mxCell>
        <mxCell id="Jk6j-OTyUwP0UT-lH424-86" value="" style="edgeStyle=orthogonalEdgeStyle;rounded=0;orthogonalLoop=1;jettySize=auto;html=1;entryX=0;entryY=0.5;entryDx=0;entryDy=0;endArrow=none;endFill=0;movable=1;resizable=1;rotatable=1;deletable=1;editable=1;locked=0;connectable=1;" edge="1" parent="1" target="Jk6j-OTyUwP0UT-lH424-87">
          <mxGeometry relative="1" as="geometry">
            <mxPoint x="1228.6399999999999" y="560.42" as="sourcePoint" />
            <mxPoint x="1333.6399999999999" y="308.41999999999996" as="targetPoint" />
          </mxGeometry>
        </mxCell>
        <mxCell id="Jk6j-OTyUwP0UT-lH424-88" style="edgeStyle=orthogonalEdgeStyle;rounded=0;orthogonalLoop=1;jettySize=auto;html=1;entryX=0;entryY=0.5;entryDx=0;entryDy=0;endArrow=none;endFill=0;movable=1;resizable=1;rotatable=1;deletable=1;editable=1;locked=0;connectable=1;" edge="1" parent="1" source="Jk6j-OTyUwP0UT-lH424-87" target="Jk6j-OTyUwP0UT-lH424-75">
          <mxGeometry relative="1" as="geometry">
            <mxPoint x="1200" y="403.41999999999996" as="targetPoint" />
          </mxGeometry>
        </mxCell>
        <mxCell id="Jk6j-OTyUwP0UT-lH424-87" value="" style="ellipse;whiteSpace=wrap;html=1;aspect=fixed;movable=1;resizable=1;rotatable=1;deletable=1;editable=1;locked=0;connectable=1;" vertex="1" parent="1">
          <mxGeometry x="1218.6399999999999" y="552.26" width="20.31" height="20.31" as="geometry" />
        </mxCell>
        <mxCell id="Jk6j-OTyUwP0UT-lH424-89" value="" style="whiteSpace=wrap;html=1;aspect=fixed;movable=1;resizable=1;rotatable=1;deletable=1;editable=1;locked=0;connectable=1;" vertex="1" parent="1">
          <mxGeometry x="1254" y="192.99999999999997" width="10" height="10" as="geometry" />
        </mxCell>
        <mxCell id="Jk6j-OTyUwP0UT-lH424-91" style="rounded=1;orthogonalLoop=1;jettySize=auto;html=1;edgeStyle=orthogonalEdgeStyle;endArrow=none;endFill=0;exitX=0;exitY=0.5;exitDx=0;exitDy=0;entryX=1;entryY=0.5;entryDx=0;entryDy=0;movable=1;resizable=1;rotatable=1;deletable=1;editable=1;locked=0;connectable=1;exitPerimeter=0;" edge="1" parent="1" target="Jk6j-OTyUwP0UT-lH424-92" source="Jk6j-OTyUwP0UT-lH424-93">
          <mxGeometry relative="1" as="geometry">
            <mxPoint x="1111.7499094047573" y="425.66499999999996" as="sourcePoint" />
            <mxPoint x="1370.999909404747" y="603.29" as="targetPoint" />
          </mxGeometry>
        </mxCell>
        <mxCell id="Jk6j-OTyUwP0UT-lH424-92" value="" style="whiteSpace=wrap;html=1;aspect=fixed;rotation=-180;movable=1;resizable=1;rotatable=1;deletable=1;editable=1;locked=0;connectable=1;" vertex="1" parent="1">
          <mxGeometry x="1135.999909404747" y="420.28999999999996" width="10" height="10" as="geometry" />
        </mxCell>
        <mxCell id="Jk6j-OTyUwP0UT-lH424-93" value="" style="shape=requiredInterface;html=1;verticalLabelPosition=bottom;sketch=0;rotation=-180;movable=1;resizable=1;rotatable=1;deletable=1;editable=1;locked=0;connectable=1;" vertex="1" parent="1">
          <mxGeometry x="1093.9999999999998" y="415.28999999999996" width="10" height="20" as="geometry" />
        </mxCell>
        <mxCell id="Jk6j-OTyUwP0UT-lH424-94" value="" style="endArrow=block;dashed=1;endFill=0;endSize=12;html=1;rounded=0;entryX=0;entryY=0.5;entryDx=0;entryDy=0;movable=1;resizable=1;rotatable=1;deletable=1;editable=1;locked=0;connectable=1;" edge="1" parent="1" source="Jk6j-OTyUwP0UT-lH424-95" target="Jk6j-OTyUwP0UT-lH424-98">
          <mxGeometry width="160" relative="1" as="geometry">
            <mxPoint x="1073" y="361.15999999999997" as="sourcePoint" />
            <mxPoint x="1203" y="426.15999999999997" as="targetPoint" />
          </mxGeometry>
        </mxCell>
        <mxCell id="Jk6j-OTyUwP0UT-lH424-95" value="" style="shape=requiredInterface;html=1;verticalLabelPosition=bottom;sketch=0;rotation=-180;movable=1;resizable=1;rotatable=1;deletable=1;editable=1;locked=0;connectable=1;" vertex="1" parent="1">
          <mxGeometry x="1161.6399999999999" y="415.28999999999996" width="10" height="20" as="geometry" />
        </mxCell>
        <mxCell id="Jk6j-OTyUwP0UT-lH424-96" style="edgeStyle=orthogonalEdgeStyle;rounded=0;orthogonalLoop=1;jettySize=auto;html=1;exitX=0;exitY=0.5;exitDx=0;exitDy=0;entryX=1;entryY=0.5;entryDx=0;entryDy=0;entryPerimeter=0;endArrow=none;endFill=0;movable=1;resizable=1;rotatable=1;deletable=1;editable=1;locked=0;connectable=1;" edge="1" parent="1" source="Jk6j-OTyUwP0UT-lH424-92" target="Jk6j-OTyUwP0UT-lH424-95">
          <mxGeometry relative="1" as="geometry" />
        </mxCell>
        <mxCell id="Jk6j-OTyUwP0UT-lH424-97" value="" style="edgeStyle=orthogonalEdgeStyle;rounded=0;orthogonalLoop=1;jettySize=auto;html=1;entryX=0;entryY=0.5;entryDx=0;entryDy=0;endArrow=none;endFill=0;movable=1;resizable=1;rotatable=1;deletable=1;editable=1;locked=0;connectable=1;" edge="1" parent="1" target="Jk6j-OTyUwP0UT-lH424-98">
          <mxGeometry relative="1" as="geometry">
            <mxPoint x="1228.6399999999999" y="423.15999999999997" as="sourcePoint" />
            <mxPoint x="1333.6399999999999" y="171.16" as="targetPoint" />
          </mxGeometry>
        </mxCell>
        <mxCell id="Jk6j-OTyUwP0UT-lH424-100" style="edgeStyle=orthogonalEdgeStyle;rounded=0;orthogonalLoop=1;jettySize=auto;html=1;endArrow=none;endFill=0;entryX=0;entryY=0.5;entryDx=0;entryDy=0;movable=1;resizable=1;rotatable=1;deletable=1;editable=1;locked=0;connectable=1;" edge="1" parent="1" source="Jk6j-OTyUwP0UT-lH424-98" target="Jk6j-OTyUwP0UT-lH424-89">
          <mxGeometry relative="1" as="geometry">
            <mxPoint x="1210" y="173.42" as="targetPoint" />
            <Array as="points">
              <mxPoint x="1230" y="198.42" />
            </Array>
          </mxGeometry>
        </mxCell>
        <mxCell id="Jk6j-OTyUwP0UT-lH424-98" value="" style="ellipse;whiteSpace=wrap;html=1;aspect=fixed;movable=1;resizable=1;rotatable=1;deletable=1;editable=1;locked=0;connectable=1;" vertex="1" parent="1">
          <mxGeometry x="1218.6399999999999" y="415" width="20.31" height="20.31" as="geometry" />
        </mxCell>
        <mxCell id="Jk6j-OTyUwP0UT-lH424-99" style="edgeStyle=orthogonalEdgeStyle;rounded=0;orthogonalLoop=1;jettySize=auto;html=1;entryX=1;entryY=0.5;entryDx=0;entryDy=0;entryPerimeter=0;endArrow=none;endFill=0;movable=1;resizable=1;rotatable=1;deletable=1;editable=1;locked=0;connectable=1;" edge="1" parent="1" source="Jk6j-OTyUwP0UT-lH424-74" target="Jk6j-OTyUwP0UT-lH424-93">
          <mxGeometry relative="1" as="geometry" />
        </mxCell>
        <mxCell id="Jk6j-OTyUwP0UT-lH424-101" value="&lt;p style=&quot;line-height: 30%;&quot;&gt;&lt;span style=&quot;font-size: 10px;&quot;&gt;Database &lt;br&gt;Communication&lt;/span&gt;&lt;/p&gt;" style="text;strokeColor=none;fillColor=none;html=1;fontSize=24;fontStyle=1;verticalAlign=middle;align=center;movable=1;resizable=1;rotatable=1;deletable=1;editable=1;locked=0;connectable=1;" vertex="1" parent="1">
          <mxGeometry x="1150" y="512.55" width="100" height="40" as="geometry" />
        </mxCell>
        <mxCell id="Jk6j-OTyUwP0UT-lH424-102" value="&lt;span style=&quot;font-size: 10px;&quot;&gt;API Call&lt;/span&gt;" style="text;strokeColor=none;fillColor=none;html=1;fontSize=24;fontStyle=1;verticalAlign=middle;align=center;movable=1;resizable=1;rotatable=1;deletable=1;editable=1;locked=0;connectable=1;" vertex="1" parent="1">
          <mxGeometry x="1146" y="373.41999999999996" width="100" height="40" as="geometry" />
        </mxCell>
        <mxCell id="Jk6j-OTyUwP0UT-lH424-103" value="Database" style="html=1;dropTarget=0;whiteSpace=wrap;movable=1;resizable=1;rotatable=1;deletable=1;editable=1;locked=0;connectable=1;" vertex="1" parent="1">
          <mxGeometry x="1334.25" y="383.91999999999996" width="136.5" height="60.92" as="geometry" />
        </mxCell>
        <mxCell id="Jk6j-OTyUwP0UT-lH424-104" value="" style="shape=module;jettyWidth=8;jettyHeight=4;movable=1;resizable=1;rotatable=1;deletable=1;editable=1;locked=0;connectable=1;" vertex="1" parent="Jk6j-OTyUwP0UT-lH424-103">
          <mxGeometry x="1" width="21" height="20" relative="1" as="geometry">
            <mxPoint x="-23" y="2" as="offset" />
          </mxGeometry>
        </mxCell>
        <mxCell id="Jk6j-OTyUwP0UT-lH424-105" value="" style="whiteSpace=wrap;html=1;aspect=fixed;movable=1;resizable=1;rotatable=1;deletable=1;editable=1;locked=0;connectable=1;" vertex="1" parent="1">
          <mxGeometry x="1397.5" y="440.0799999999999" width="10" height="10" as="geometry" />
        </mxCell>
        <mxCell id="Jk6j-OTyUwP0UT-lH424-106" value="" style="whiteSpace=wrap;html=1;aspect=fixed;movable=1;resizable=1;rotatable=1;deletable=1;editable=1;locked=0;connectable=1;" vertex="1" parent="1">
          <mxGeometry x="1397.5" y="527.4699999999999" width="10" height="10" as="geometry" />
        </mxCell>
        <mxCell id="Jk6j-OTyUwP0UT-lH424-107" style="edgeStyle=orthogonalEdgeStyle;rounded=0;orthogonalLoop=1;jettySize=auto;html=1;endArrow=none;endFill=0;entryX=0.5;entryY=0;entryDx=0;entryDy=0;movable=1;resizable=1;rotatable=1;deletable=1;editable=1;locked=0;connectable=1;" edge="1" parent="1" target="Jk6j-OTyUwP0UT-lH424-106">
          <mxGeometry relative="1" as="geometry">
            <mxPoint x="1402.5" y="517.0799999999999" as="targetPoint" />
            <mxPoint x="1402.5" y="490.3399999999999" as="sourcePoint" />
          </mxGeometry>
        </mxCell>
        <mxCell id="Jk6j-OTyUwP0UT-lH424-108" style="edgeStyle=orthogonalEdgeStyle;rounded=0;orthogonalLoop=1;jettySize=auto;html=1;entryX=0.5;entryY=1;entryDx=0;entryDy=0;endArrow=none;endFill=0;movable=1;resizable=1;rotatable=1;deletable=1;editable=1;locked=0;connectable=1;" edge="1" parent="1" source="Jk6j-OTyUwP0UT-lH424-109">
          <mxGeometry relative="1" as="geometry">
            <mxPoint x="1402.5" y="450.08000000000004" as="targetPoint" />
          </mxGeometry>
        </mxCell>
        <mxCell id="Jk6j-OTyUwP0UT-lH424-109" value="" style="shape=providedRequiredInterface;html=1;verticalLabelPosition=bottom;sketch=0;rotation=-90;movable=1;resizable=1;rotatable=1;deletable=1;editable=1;locked=0;connectable=1;" vertex="1" parent="1">
          <mxGeometry x="1392.5" y="470.0799999999999" width="20" height="20" as="geometry" />
        </mxCell>
        <mxCell id="Jk6j-OTyUwP0UT-lH424-112" value="&lt;p style=&quot;line-height: 30%;&quot;&gt;&lt;span style=&quot;font-size: 10px;&quot;&gt;Manage Data&lt;br&gt;Transfer&lt;/span&gt;&lt;/p&gt;" style="text;strokeColor=none;fillColor=none;html=1;fontSize=24;fontStyle=1;verticalAlign=middle;align=center;movable=1;resizable=1;rotatable=1;deletable=1;editable=1;locked=0;connectable=1;" vertex="1" parent="1">
          <mxGeometry x="1397.5" y="458.41999999999996" width="100" height="40" as="geometry" />
        </mxCell>
        <mxCell id="Jk6j-OTyUwP0UT-lH424-115" value="" style="whiteSpace=wrap;html=1;aspect=fixed;movable=1;resizable=1;rotatable=1;deletable=1;editable=1;locked=0;connectable=1;" vertex="1" parent="1">
          <mxGeometry x="950" y="316.41999999999996" width="10" height="10" as="geometry" />
        </mxCell>
        <mxCell id="Jk6j-OTyUwP0UT-lH424-116" style="edgeStyle=orthogonalEdgeStyle;rounded=0;orthogonalLoop=1;jettySize=auto;html=1;entryX=1;entryY=0.5;entryDx=0;entryDy=0;entryPerimeter=0;endArrow=none;endFill=0;movable=1;resizable=1;rotatable=1;deletable=1;editable=1;locked=0;connectable=1;" edge="1" parent="1" source="Jk6j-OTyUwP0UT-lH424-115" target="Jk6j-OTyUwP0UT-lH424-71">
          <mxGeometry relative="1" as="geometry">
            <Array as="points">
              <mxPoint x="955" y="353.41999999999996" />
              <mxPoint x="850" y="353.41999999999996" />
            </Array>
          </mxGeometry>
        </mxCell>
        <mxCell id="Jk6j-OTyUwP0UT-lH424-118" value="&lt;p style=&quot;line-height: 30%;&quot;&gt;&lt;span style=&quot;font-size: 10px;&quot;&gt;Manage&lt;br&gt;Data&lt;/span&gt;&lt;/p&gt;" style="text;strokeColor=none;fillColor=none;html=1;fontSize=24;fontStyle=1;verticalAlign=middle;align=center;movable=1;resizable=1;rotatable=1;deletable=1;editable=1;locked=0;connectable=1;" vertex="1" parent="1">
          <mxGeometry x="826" y="444.8399999999999" width="100" height="40" as="geometry" />
        </mxCell>
        <mxCell id="Jk6j-OTyUwP0UT-lH424-119" style="edgeStyle=orthogonalEdgeStyle;rounded=0;orthogonalLoop=1;jettySize=auto;html=1;entryX=0;entryY=0.5;entryDx=0;entryDy=0;endArrow=none;endFill=0;movable=1;resizable=1;rotatable=1;deletable=1;editable=1;locked=0;connectable=1;" edge="1" parent="1" source="Jk6j-OTyUwP0UT-lH424-121" target="Jk6j-OTyUwP0UT-lH424-120">
          <mxGeometry relative="1" as="geometry" />
        </mxCell>
        <mxCell id="Jk6j-OTyUwP0UT-lH424-120" value="" style="whiteSpace=wrap;html=1;aspect=fixed;movable=1;resizable=1;rotatable=1;deletable=1;editable=1;locked=0;connectable=1;" vertex="1" parent="1">
          <mxGeometry x="908.5" y="306.1700000000001" width="10" height="10" as="geometry" />
        </mxCell>
        <mxCell id="Jk6j-OTyUwP0UT-lH424-121" value="" style="ellipse;whiteSpace=wrap;html=1;aspect=fixed;movable=1;resizable=1;rotatable=1;deletable=1;editable=1;locked=0;connectable=1;" vertex="1" parent="1">
          <mxGeometry x="850" y="299.80000000000007" width="23.75" height="23.75" as="geometry" />
        </mxCell>
      </root>
    </mxGraphModel>
  </diagram>
</mxfile>
